<svg width="80" height="80" viewBox="0 0 80 80" fill="none" xmlns="http://www.w3.org/2000/svg">
<mask id="path-1-inside-1_13501_28828" fill="white">
<path d="M59.9903 43.905L64.2879 9.52522C64.3978 8.64586 64.3194 7.75317 64.058 6.9064C63.7966 6.05963 63.3581 5.27813 62.7716 4.61376C62.1851 3.94939 61.464 3.41734 60.6562 3.05292C59.8484 2.68849 58.9723 2.50001 58.0861 2.5H40.965C39.6936 2.50408 38.4535 2.89397 37.4086 3.61811C36.3636 4.34226 35.5631 5.36653 35.1129 6.55548L27.1468 27.7983C26.6249 29.1767 25.6969 30.3642 24.4855 31.2038C23.274 32.0433 21.8363 32.4953 20.3624 32.5H12.5C11.5058 32.5011 10.5526 32.8966 9.84961 33.5996C9.14659 34.3026 8.75114 35.2558 8.75 36.25V43.75C8.75 43.9142 8.78232 44.0767 8.84514 44.2284C8.90796 44.38 9.00003 44.5178 9.11611 44.6339C9.23218 44.75 9.36998 44.842 9.52164 44.9049C9.6733 44.9677 9.83585 45 10 45H13.543L9.10347 73.857C8.97902 74.6658 9.17299 75.4914 9.64461 76.1602C10.1162 76.829 10.8288 77.2889 11.6324 77.4432C12.4361 77.5976 13.2683 77.4343 13.9541 76.9878C14.64 76.5413 15.126 75.8463 15.31 75.0489L22.2444 45H26.9768L22.5372 73.857C22.4128 74.6658 22.6067 75.4914 23.0783 76.1602C23.55 76.8291 24.2625 77.289 25.0662 77.4433C25.8699 77.5977 26.7021 77.4344 27.3879 76.9879C28.0738 76.5414 28.5597 75.8463 28.7438 75.0489L35.6781 45H40.5719L47.5063 75.0489C47.6903 75.8463 48.1762 76.5413 48.8621 76.9878C49.5479 77.4344 50.3801 77.5976 51.1837 77.4433C51.9874 77.289 52.7 76.8291 53.1716 76.1603C53.6432 75.4915 53.8372 74.6659 53.7128 73.857L49.2732 45H50.5719L57.5063 75.0489C57.6903 75.8463 58.1762 76.5413 58.8621 76.9878C59.5479 77.4344 60.3801 77.5976 61.1837 77.4433C61.9874 77.289 62.7 76.8291 63.1716 76.1603C63.6432 75.4915 63.8372 74.6659 63.7128 73.857L59.2565 44.8916C59.4536 44.8044 59.6247 44.6678 59.7533 44.4949C59.8818 44.322 59.9635 44.1188 59.9903 43.905ZM17.5 35H20.3624C22.3448 34.9937 24.2786 34.3857 25.908 33.2565C27.5374 32.1273 28.7857 30.5301 29.4877 28.6761L37.4538 7.43332C37.7239 6.71994 38.2042 6.10536 38.8311 5.67087C39.4581 5.23638 40.2022 5.00244 40.965 5H58.0861C58.6178 5.00001 59.1435 5.11309 59.6281 5.33174C60.1128 5.55039 60.5455 5.86962 60.8974 6.26823C61.2493 6.66685 61.5124 7.13574 61.6692 7.6438C61.8261 8.15186 61.8731 8.68747 61.8072 9.21509L59.6899 26.1529C59.5059 27.6057 58.8869 28.969 57.9141 30.0637C56.9414 31.1584 55.6603 31.9333 54.2391 32.2867C55.8577 30.7411 56.8931 28.6842 57.1705 26.4634L58.7403 13.905L56.2597 13.595L54.6899 26.1533C54.4685 27.9047 53.6162 29.5154 52.2927 30.6836C50.9693 31.8519 49.2653 32.4976 47.5 32.5C46.5058 32.5011 45.5526 32.8966 44.8496 33.5996C44.1466 34.3026 43.7511 35.2558 43.75 36.25V37.715C43.3487 37.5726 42.9259 37.4998 42.5 37.5H17.5C17.0741 37.4998 16.6513 37.5726 16.25 37.715V36.25C16.2504 35.9186 16.3822 35.6009 16.6165 35.3665C16.8509 35.1322 17.1686 35.0004 17.5 35ZM51.25 42.5V36.25C51.2504 35.9186 51.3822 35.6009 51.6165 35.3665C51.8509 35.1322 52.1686 35.0004 52.5 35C54.8462 34.9998 57.1132 34.151 58.8827 32.6104L57.6465 42.5H51.25ZM48.9642 35C48.8221 35.4014 48.7496 35.8242 48.75 36.25V42.5H46.25V36.25C46.2504 35.9186 46.3822 35.6009 46.6165 35.3665C46.8509 35.1322 47.1686 35.0004 47.5 35H48.9642ZM43.75 42.5H16.25V41.25C16.2504 40.9186 16.3822 40.6009 16.6165 40.3665C16.8509 40.1322 17.1686 40.0004 17.5 40H42.5C42.8314 40.0004 43.1491 40.1322 43.3835 40.3665C43.6178 40.6009 43.7496 40.9186 43.75 41.25V42.5ZM11.25 36.25C11.2504 35.9186 11.3822 35.6009 11.6165 35.3665C11.8509 35.1322 12.1686 35.0004 12.5 35H13.9642C13.8221 35.4014 13.7496 35.8242 13.75 36.25V42.5H11.25V36.25ZM12.8741 74.4868C12.8355 74.6538 12.7338 74.7993 12.5901 74.8928C12.4465 74.9863 12.2722 75.0205 12.1039 74.9882C11.9357 74.9558 11.7864 74.8595 11.6877 74.7195C11.5889 74.5794 11.5483 74.4065 11.5744 74.2371L16.0723 45H19.6787L12.8741 74.4868ZM26.3078 74.4868C26.2693 74.6538 26.1675 74.7993 26.0239 74.8928C25.8803 74.9863 25.706 75.0205 25.5377 74.9882C25.3694 74.9558 25.2202 74.8595 25.1214 74.7195C25.0227 74.5794 24.9821 74.4065 25.0082 74.2371L29.5061 45H33.1125L26.3078 74.4868ZM51.2419 74.2372C51.2679 74.4066 51.2273 74.5794 51.1285 74.7195C51.0297 74.8595 50.8805 74.9558 50.7122 74.9881C50.544 75.0204 50.3697 74.9862 50.2261 74.8927C50.0825 74.7993 49.9807 74.6537 49.9422 74.4868L43.1375 45H46.7439L51.2419 74.2372ZM61.09 74.769C61.0102 74.8619 60.9063 74.931 60.7896 74.9684C60.673 75.0058 60.5483 75.0101 60.4293 74.9809C60.3104 74.9516 60.2018 74.8899 60.1158 74.8027C60.0298 74.7155 59.9697 74.6061 59.9422 74.4868L53.1375 45H56.7439L61.2419 74.2372C61.2569 74.3316 61.2511 74.4281 61.2249 74.5199C61.1986 74.6118 61.1526 74.6968 61.09 74.769H61.09Z"/>
</mask>
<path d="M59.9903 43.905L64.2879 9.52522C64.3978 8.64586 64.3194 7.75317 64.058 6.9064C63.7966 6.05963 63.3581 5.27813 62.7716 4.61376C62.1851 3.94939 61.464 3.41734 60.6562 3.05292C59.8484 2.68849 58.9723 2.50001 58.0861 2.5H40.965C39.6936 2.50408 38.4535 2.89397 37.4086 3.61811C36.3636 4.34226 35.5631 5.36653 35.1129 6.55548L27.1468 27.7983C26.6249 29.1767 25.6969 30.3642 24.4855 31.2038C23.274 32.0433 21.8363 32.4953 20.3624 32.5H12.5C11.5058 32.5011 10.5526 32.8966 9.84961 33.5996C9.14659 34.3026 8.75114 35.2558 8.75 36.25V43.75C8.75 43.9142 8.78232 44.0767 8.84514 44.2284C8.90796 44.38 9.00003 44.5178 9.11611 44.6339C9.23218 44.75 9.36998 44.842 9.52164 44.9049C9.6733 44.9677 9.83585 45 10 45H13.543L9.10347 73.857C8.97902 74.6658 9.17299 75.4914 9.64461 76.1602C10.1162 76.829 10.8288 77.2889 11.6324 77.4432C12.4361 77.5976 13.2683 77.4343 13.9541 76.9878C14.64 76.5413 15.126 75.8463 15.31 75.0489L22.2444 45H26.9768L22.5372 73.857C22.4128 74.6658 22.6067 75.4914 23.0783 76.1602C23.55 76.8291 24.2625 77.289 25.0662 77.4433C25.8699 77.5977 26.7021 77.4344 27.3879 76.9879C28.0738 76.5414 28.5597 75.8463 28.7438 75.0489L35.6781 45H40.5719L47.5063 75.0489C47.6903 75.8463 48.1762 76.5413 48.8621 76.9878C49.5479 77.4344 50.3801 77.5976 51.1837 77.4433C51.9874 77.289 52.7 76.8291 53.1716 76.1603C53.6432 75.4915 53.8372 74.6659 53.7128 73.857L49.2732 45H50.5719L57.5063 75.0489C57.6903 75.8463 58.1762 76.5413 58.8621 76.9878C59.5479 77.4344 60.3801 77.5976 61.1837 77.4433C61.9874 77.289 62.7 76.8291 63.1716 76.1603C63.6432 75.4915 63.8372 74.6659 63.7128 73.857L59.2565 44.8916C59.4536 44.8044 59.6247 44.6678 59.7533 44.4949C59.8818 44.322 59.9635 44.1188 59.9903 43.905ZM17.5 35H20.3624C22.3448 34.9937 24.2786 34.3857 25.908 33.2565C27.5374 32.1273 28.7857 30.5301 29.4877 28.6761L37.4538 7.43332C37.7239 6.71994 38.2042 6.10536 38.8311 5.67087C39.4581 5.23638 40.2022 5.00244 40.965 5H58.0861C58.6178 5.00001 59.1435 5.11309 59.6281 5.33174C60.1128 5.55039 60.5455 5.86962 60.8974 6.26823C61.2493 6.66685 61.5124 7.13574 61.6692 7.6438C61.8261 8.15186 61.8731 8.68747 61.8072 9.21509L59.6899 26.1529C59.5059 27.6057 58.8869 28.969 57.9141 30.0637C56.9414 31.1584 55.6603 31.9333 54.2391 32.2867C55.8577 30.7411 56.8931 28.6842 57.1705 26.4634L58.7403 13.905L56.2597 13.595L54.6899 26.1533C54.4685 27.9047 53.6162 29.5154 52.2927 30.6836C50.9693 31.8519 49.2653 32.4976 47.5 32.5C46.5058 32.5011 45.5526 32.8966 44.8496 33.5996C44.1466 34.3026 43.7511 35.2558 43.75 36.25V37.715C43.3487 37.5726 42.9259 37.4998 42.5 37.5H17.5C17.0741 37.4998 16.6513 37.5726 16.25 37.715V36.25C16.2504 35.9186 16.3822 35.6009 16.6165 35.3665C16.8509 35.1322 17.1686 35.0004 17.5 35ZM51.25 42.5V36.25C51.2504 35.9186 51.3822 35.6009 51.6165 35.3665C51.8509 35.1322 52.1686 35.0004 52.5 35C54.8462 34.9998 57.1132 34.151 58.8827 32.6104L57.6465 42.5H51.25ZM48.9642 35C48.8221 35.4014 48.7496 35.8242 48.75 36.25V42.5H46.25V36.25C46.2504 35.9186 46.3822 35.6009 46.6165 35.3665C46.8509 35.1322 47.1686 35.0004 47.5 35H48.9642ZM43.75 42.5H16.25V41.25C16.2504 40.9186 16.3822 40.6009 16.6165 40.3665C16.8509 40.1322 17.1686 40.0004 17.5 40H42.5C42.8314 40.0004 43.1491 40.1322 43.3835 40.3665C43.6178 40.6009 43.7496 40.9186 43.75 41.25V42.5ZM11.25 36.25C11.2504 35.9186 11.3822 35.6009 11.6165 35.3665C11.8509 35.1322 12.1686 35.0004 12.5 35H13.9642C13.8221 35.4014 13.7496 35.8242 13.75 36.25V42.5H11.25V36.25ZM12.8741 74.4868C12.8355 74.6538 12.7338 74.7993 12.5901 74.8928C12.4465 74.9863 12.2722 75.0205 12.1039 74.9882C11.9357 74.9558 11.7864 74.8595 11.6877 74.7195C11.5889 74.5794 11.5483 74.4065 11.5744 74.2371L16.0723 45H19.6787L12.8741 74.4868ZM26.3078 74.4868C26.2693 74.6538 26.1675 74.7993 26.0239 74.8928C25.8803 74.9863 25.706 75.0205 25.5377 74.9882C25.3694 74.9558 25.2202 74.8595 25.1214 74.7195C25.0227 74.5794 24.9821 74.4065 25.0082 74.2371L29.5061 45H33.1125L26.3078 74.4868ZM51.2419 74.2372C51.2679 74.4066 51.2273 74.5794 51.1285 74.7195C51.0297 74.8595 50.8805 74.9558 50.7122 74.9881C50.544 75.0204 50.3697 74.9862 50.2261 74.8927C50.0825 74.7993 49.9807 74.6537 49.9422 74.4868L43.1375 45H46.7439L51.2419 74.2372ZM61.09 74.769C61.0102 74.8619 60.9063 74.931 60.7896 74.9684C60.673 75.0058 60.5483 75.0101 60.4293 74.9809C60.3104 74.9516 60.2018 74.8899 60.1158 74.8027C60.0298 74.7155 59.9697 74.6061 59.9422 74.4868L53.1375 45H56.7439L61.2419 74.2372C61.2569 74.3316 61.2511 74.4281 61.2249 74.5199C61.1986 74.6118 61.1526 74.6968 61.09 74.769H61.09Z" fill="#079294" stroke="#F6F6F6" mask="url(#path-1-inside-1_13501_28828)"/>
</svg>
