<svg width="18" height="18" viewBox="0 0 18 18" fill="none" xmlns="http://www.w3.org/2000/svg">
<path d="M12.3067 0.483398H5.50072C2.73469 0.483398 0.484375 2.73372 0.484375 5.49975V12.3057C0.484375 15.0717 2.73469 17.3221 5.50072 17.3221H12.3067C15.0727 17.3221 17.323 15.0717 17.323 12.3057V5.49975C17.323 2.73372 15.0727 0.483398 12.3067 0.483398ZM15.6291 12.3057C15.6291 14.1406 14.1416 15.6281 12.3067 15.6281H5.50072C3.66583 15.6281 2.17834 14.1406 2.17834 12.3057V5.49975C2.17834 3.66486 3.66583 2.17737 5.50072 2.17737H12.3067C14.1416 2.17737 15.6291 3.66486 15.6291 5.49975V12.3057Z" fill="black"/>
<path d="M13.2663 5.62421C13.8426 5.62421 14.3098 5.15699 14.3098 4.58066C14.3098 4.00433 13.8426 3.53711 13.2663 3.53711C12.6899 3.53711 12.2227 4.00433 12.2227 4.58066C12.2227 5.15699 12.6899 5.62421 13.2663 5.62421Z" fill="black"/>
<path d="M8.90586 4.54785C6.50444 4.54785 4.55078 6.50151 4.55078 8.90293C4.55078 11.3043 6.50444 13.258 8.90586 13.258C11.3073 13.258 13.2609 11.3043 13.2609 8.90293C13.2609 6.50151 11.3073 4.54785 8.90586 4.54785ZM8.90586 11.564C7.43618 11.564 6.24475 10.3726 6.24475 8.90293C6.24475 7.43325 7.43618 6.24182 8.90586 6.24182C10.3755 6.24182 11.567 7.43325 11.567 8.90293C11.567 10.3726 10.3755 11.564 8.90586 11.564Z" fill="black"/>
</svg>
