<svg width="24" height="24" viewBox="0 0 24 24" fill="none" xmlns="http://www.w3.org/2000/svg">
<path d="M11.866 6.62448L12 6.89086L12.134 6.62448C13.0568 4.79002 14.5995 3.82773 16.6094 3.82773C18.0495 3.82773 19.3652 4.36143 20.3179 5.32618C21.3171 6.33808 21.85 7.72707 21.85 9.3525C21.85 11.2797 20.623 13.432 18.1385 15.7509C15.8893 17.8503 13.4219 19.3252 12.9515 19.5988L13.027 19.7284L12.9515 19.5988C12.8531 19.656 12.6941 19.748 12.5597 19.8257L12.3872 19.9253L12.3347 19.9556L12.3205 19.9638L12.3168 19.966L12.3158 19.9665L12.3156 19.9666L12.3155 19.9667L12.3155 19.9667L12.3905 20.0966L12.3155 19.9667L12.0001 20.1487L11.6847 19.9668L11.6097 20.0967L11.6847 19.9668L11.6846 19.9668L11.6846 19.9667L11.6843 19.9666L11.6834 19.966L11.6797 19.9639L11.6654 19.9557L11.6129 19.9254L11.4403 19.8258C11.3057 19.748 11.1467 19.6561 11.0482 19.5988C10.5778 19.3253 8.11058 17.8505 5.86126 15.7509C3.37695 13.432 2.15 11.2797 2.15 9.3525C2.15 7.72707 2.68294 6.33809 3.68212 5.32622C4.63483 4.36143 5.95051 3.82773 7.39062 3.82773C9.40055 3.82773 10.9432 4.79002 11.866 6.62448ZM12.3169 18.5074L12.3169 18.5074C12.769 18.2445 15.1259 16.8358 17.2771 14.828C19.4169 12.8308 20.5875 10.9372 20.5875 9.3525C20.5875 8.10919 20.183 7.04298 19.4785 6.28619C18.7732 5.52862 17.7756 5.09023 16.6094 5.09023C15.8554 5.09023 15.1913 5.26632 14.6268 5.6215C14.0626 5.97653 13.6066 6.50503 13.2596 7.19638C12.8281 8.05611 12.6855 8.93404 12.6446 9.26793H11.3554C11.314 8.92836 11.1685 8.03125 10.7205 7.15722C10.3684 6.47011 9.91894 5.951 9.3611 5.60452C8.80305 5.2579 8.14654 5.09023 7.39062 5.09023C6.22436 5.09023 5.22677 5.52862 4.52154 6.28619C3.81705 7.04298 3.4125 8.10919 3.4125 9.3525C3.4125 10.9372 4.58304 12.8308 6.72273 14.828L6.82508 14.7183C8.96414 16.7149 11.3097 18.1169 11.7582 18.3777L11.6827 18.5074C11.6828 18.5074 11.6828 18.5074 11.6828 18.5074C11.7461 18.5442 11.8344 18.5953 11.9248 18.6476L11.9999 18.691L12.075 18.6476L12.3169 18.5074Z" fill="#079294" stroke="#079294" stroke-width="0.3"/>
</svg>
