<svg width="89" height="41" viewBox="0 0 89 41" fill="none" xmlns="http://www.w3.org/2000/svg">
<path d="M8.48243 17.2302V16.0346C8.48243 15.832 8.64662 15.6678 8.84919 15.6678H14.7589V17.5969H8.84919C8.64662 17.5969 8.48243 17.4327 8.48243 17.2302ZM16.0303 9.23727H5.77573V11.7949H14.3921C14.5947 11.7949 14.7589 11.959 14.7589 12.1617V13.4941H7.2134C5.9298 13.4941 4.89062 14.5357 4.89062 15.8169V18.0248C4.89062 19.3077 5.93062 20.3477 7.2134 20.3477H18.3532V11.5601C18.3532 10.2772 17.3132 9.23727 16.0303 9.23727Z" fill="black"/>
<path d="M39.3205 11.8533C39.2465 11.8099 39.1057 11.7865 38.8997 11.7865H32.4022V17.5978H38.8997C39.1075 17.5978 39.2465 17.5725 39.3205 17.5201C39.3946 17.4679 39.4325 17.3468 39.4325 17.1554V12.2307C39.4325 12.0231 39.3946 11.8984 39.3205 11.8533ZM32.4022 24.6948H28.8086V9.2366H39.1887C39.8676 9.2366 40.4528 9.28172 40.9404 9.3702C41.4279 9.45882 41.8271 9.62482 42.1377 9.86864C42.4484 10.1125 42.674 10.4538 42.8148 10.8889C42.9539 11.3261 43.0243 11.884 43.0243 12.563V17.0218C43.0243 17.717 42.9539 18.2786 42.8148 18.7067C42.674 19.1364 42.4484 19.4723 42.1377 19.7161C41.8271 19.9598 41.4279 20.1259 40.9404 20.2146C40.4528 20.3029 39.8676 20.3482 39.1887 20.3482H32.4022V24.6948Z" fill="black"/>
<path d="M63.476 12.2307C63.476 12.0231 63.4382 11.8984 63.364 11.8532C63.2901 11.8099 63.1492 11.7865 62.9434 11.7865H57.3975V20.3481H53.8057V9.23657H63.2306C63.9115 9.23657 64.4947 9.2817 64.9841 9.37017C65.4718 9.45879 65.8708 9.62479 66.1813 9.86862C66.4919 10.1124 66.7177 10.4538 66.8567 10.8889C66.9976 11.3261 67.068 11.884 67.068 12.563V20.3481H63.476V12.2307Z" fill="black"/>
<path d="M74.2163 17.2302V16.0346C74.2163 15.832 74.3804 15.6678 74.5831 15.6678H80.4929V17.5969H74.5831C74.3804 17.5969 74.2163 17.4327 74.2163 17.2302ZM81.7642 9.23727H71.5096V11.7949H80.1259C80.3285 11.7949 80.4929 11.959 80.4929 12.1617V13.4941H72.9473C71.6636 13.4941 70.6245 14.5357 70.6245 15.8169V18.0248C70.6245 19.3077 71.6645 20.3477 72.9473 20.3477H84.087V11.5601C84.087 10.2772 83.0471 9.23727 81.7642 9.23727Z" fill="black"/>
<path d="M25.2153 20.3481H21.6216V4.88977H25.2153V20.3481Z" fill="black"/>
<path d="M50.2124 20.3481H46.6187V9.23657H50.2124V20.3481Z" fill="black"/>
<path d="M14.4349 35.1426V31.7769C14.4349 31.4388 14.4372 31.0955 14.4427 30.7471C14.4476 30.3988 14.4603 30.081 14.481 29.7943H14.4504C14.4093 29.8557 14.3478 29.9429 14.2659 30.0553C14.1837 30.1682 14.0914 30.2938 13.9893 30.4318C13.8867 30.5703 13.7816 30.7138 13.6741 30.8622C13.5665 31.0109 13.4666 31.1417 13.3745 31.2543L11.2228 33.9439H10.5466L8.4255 31.2849C8.33337 31.1723 8.2308 31.0416 8.11821 30.893C8.00523 30.7446 7.89536 30.5986 7.78758 30.4549C7.68002 30.3117 7.5827 30.1811 7.49572 30.0631C7.4084 29.9454 7.34436 29.8557 7.30356 29.7943H7.27293C7.2931 30.0606 7.30605 30.3654 7.3113 30.7085C7.31627 31.052 7.31893 31.3874 7.31893 31.7153V35.1426H4.89062V27.0583H7.54953L9.67042 29.7788C9.75233 29.8915 9.8522 30.0223 9.97014 30.1707C10.0878 30.3193 10.203 30.4704 10.316 30.624C10.4285 30.7777 10.5388 30.9263 10.6464 31.0698C10.754 31.2133 10.8384 31.3259 10.8999 31.4078H10.9307C10.9922 31.3158 11.0715 31.203 11.169 31.0698C11.2662 30.9368 11.3712 30.7958 11.484 30.6472C11.5965 30.4987 11.7093 30.3475 11.8221 30.1938C11.9347 30.0401 12.0423 29.9017 12.1448 29.7788L14.2659 27.0583H16.8633V35.1426H14.4349Z" fill="black"/>
<path d="M25.7004 29.4407L24.1481 32.0072H27.2833L25.7004 29.4407ZM29.0663 35.1426L28.1287 33.529H23.3028L22.35 35.1426H19.5835L24.6245 27.0583H26.8686L31.9095 35.1426H29.0663Z" fill="black"/>
<path d="M42.0226 29.1485C42.0226 28.9746 41.9865 28.867 41.915 28.826C41.8431 28.785 41.7355 28.7644 41.592 28.7644H37.1197V30.8085H41.592C41.7559 30.8085 41.8688 30.7854 41.9301 30.7393C41.9916 30.6932 42.0226 30.5882 42.0226 30.4243V29.1485ZM41.9301 35.1426L39.256 32.5298H37.1197V35.1426H34.6299V27.0583H41.8381C42.3606 27.0583 42.7884 27.0945 43.1212 27.1659C43.4543 27.2379 43.7154 27.3581 43.9054 27.5271C44.0946 27.6962 44.2281 27.9165 44.3047 28.188C44.3816 28.4596 44.4201 28.8005 44.4201 29.21V30.4243C44.4201 30.7217 44.3867 30.9982 44.3201 31.2543C44.2535 31.5104 44.1357 31.7307 43.9666 31.9152C43.7975 32.0995 43.5695 32.2454 43.283 32.3531C42.9958 32.4605 42.6373 32.5145 42.2071 32.5145L45.0656 35.1426H41.9301Z" fill="black"/>
<path d="M55.378 35.1426L50.5675 31.992V35.1426H48.0776V27.0583H50.5675V29.9632L55.0861 27.0583H58.7131L52.6578 30.9162L59.2818 35.1426H55.378Z" fill="black"/>
<path d="M61.9561 35.1426V27.0583H71.2697V28.7644H64.4458V30.2245H69.0565V31.7307H64.4458V33.3751H71.3467V35.1426H61.9561Z" fill="black"/>
<path d="M77.6636 35.1426V28.7644H73.729V27.0583H84.088V28.7644H80.1535V35.1426H77.6636Z" fill="black"/>
</svg>
