<svg width="24" height="24" viewBox="0 0 24 24" fill="none" xmlns="http://www.w3.org/2000/svg">
<path d="M3.10039 12.0862L3.10038 12.0855C3.04543 4.13534 12.7205 0.093468 18.325 5.72754C23.8699 11.354 19.8664 20.9073 11.9574 20.9003H11.9573C10.556 20.9003 9.21891 20.5861 7.98245 19.9665C6.74827 19.348 5.25518 19.5979 4.26698 20.5861L4.12946 20.7237C4.01412 20.839 3.85989 20.9003 3.70291 20.9003C3.62523 20.9003 3.54693 20.8853 3.47227 20.8544C3.24693 20.761 3.1 20.5411 3.1 20.2972L3.10039 12.0862ZM8.52284 18.8882C9.59211 19.4242 10.7511 19.6953 11.9652 19.6942C18.7737 19.7041 22.2641 11.3879 17.4677 6.57592L17.4676 6.57583C12.6035 1.7081 4.27119 5.19483 4.30645 12.0765L4.30647 12.0802L4.30648 12.0828L4.30617 18.8696L4.30616 19.0374L4.45373 18.9576C5.10531 18.6052 5.83011 18.4235 6.55978 18.4235C7.22728 18.4235 7.89874 18.5754 8.52284 18.8882ZM9.78987 12.0013C9.78987 12.4307 9.44224 12.779 9.01302 12.7801C7.9781 12.7371 7.97825 11.2653 9.01302 11.2225C9.44224 11.2235 9.78987 11.5718 9.78987 12.0013ZM11.2554 11.9993C11.2564 11.5701 11.6047 11.2225 12.0342 11.2225C12.4636 11.2225 12.8119 11.5701 12.813 11.9993C12.7701 13.0341 11.2984 13.0342 11.2554 11.9993ZM15.8361 11.9993C15.7932 13.0341 14.3215 13.0342 14.2785 11.9993C14.2795 11.5701 14.6278 11.2225 15.0573 11.2225C15.4867 11.2225 15.835 11.5701 15.8361 11.9993Z" fill="#079294" stroke="#079294" stroke-width="0.2"/>
</svg>
