<svg width="24" height="24" viewBox="0 0 24 24" fill="none" xmlns="http://www.w3.org/2000/svg">
<path d="M19.4406 20.2481L18.3453 8.05022C18.3154 7.7171 18.0363 7.46195 17.7018 7.46195H15.4431V6.44322C15.4431 4.54463 13.8986 3 12 3C10.1016 3 8.55726 4.54463 8.55726 6.44322V7.46195H6.29696C5.96255 7.46195 5.68336 7.7171 5.65347 8.05022L4.55385 20.2961C4.53766 20.4769 4.59813 20.6559 4.72054 20.7898C4.84295 20.9237 5.01601 20.9999 5.19734 20.9999H18.8015C18.8021 20.9999 18.8028 20.9999 18.8033 20.9999C19.1602 20.9999 19.4493 20.7106 19.4493 20.3538C19.4493 20.3179 19.4463 20.2825 19.4406 20.2481ZM9.8494 6.44322C9.8494 5.25712 10.8142 4.29214 12.0001 4.29214C13.1861 4.29214 14.151 5.25712 14.151 6.44322V7.46195H9.8494V6.44322ZM5.90406 19.7079L6.88764 8.75409H8.55726V9.90944C8.55726 10.2662 8.84644 10.5555 9.20333 10.5555C9.56022 10.5555 9.8494 10.2662 9.8494 9.90944V8.75409H14.151V9.90944C14.151 10.2662 14.4402 10.5555 14.7971 10.5555C15.154 10.5555 15.4432 10.2662 15.4432 9.90944V8.75409H17.1113L18.0948 19.7079H5.90406Z" fill="#079294"/>
</svg>
