<svg width="17" height="17" viewBox="0 0 17 17" fill="none" xmlns="http://www.w3.org/2000/svg">
<path fill-rule="evenodd" clip-rule="evenodd" d="M10.3911 10.2523H9.86387L9.68062 10.0704C10.328 9.31547 10.7217 8.3368 10.7217 7.26452C10.7217 4.88094 8.7896 2.94884 6.40602 2.94884C4.02243 2.94884 2.09033 4.88094 2.09033 7.26452C2.09033 9.64811 4.02243 11.5802 6.40602 11.5802C7.4783 11.5802 8.4563 11.1871 9.21121 10.5405L9.39446 10.7224V11.2482L12.7129 14.562L13.7028 13.5721L10.3911 10.2523ZM6.4068 10.2521C4.75622 10.2521 3.41902 8.91492 3.41902 7.26433C3.41902 5.61442 4.75622 4.27655 6.4068 4.27655C8.05672 4.27655 9.39458 5.61442 9.39458 7.26433C9.39458 8.91492 8.05672 10.2521 6.4068 10.2521Z" fill="#141414"/>
</svg>
